<svg width="60" height="60" viewBox="0 0 60 60" fill="none" xmlns="http://www.w3.org/2000/svg">
<g clip-path="url(#clip0_2001_231)">
<mask id="path-1-inside-1_2001_231" fill="white">
<path d="M56.7084 34.5206C56.0624 34.1692 55.3382 33.986 54.6028 33.988C53.8673 33.9899 53.1442 34.177 52.5 34.5319V13.125C52.5 12.8764 52.4012 12.6379 52.2254 12.4621C52.0496 12.2863 51.8111 12.1875 51.5625 12.1875H45V8.4375C45 6.19974 44.111 4.05362 42.5287 2.47129C40.9464 0.888948 38.8003 0 36.5625 0C34.3247 0 32.1786 0.888948 30.5963 2.47129C29.0139 4.05362 28.125 6.19974 28.125 8.4375V12.1875H21.5625C21.3139 12.1875 21.0754 12.2863 20.8996 12.4621C20.7238 12.6379 20.625 12.8764 20.625 13.125V35.1816C19.6581 34.8567 18.6451 34.6899 17.625 34.6875H15V32.8125C15 32.5639 14.9012 32.3254 14.7254 32.1496C14.5496 31.9738 14.3111 31.875 14.0625 31.875H8.4375C8.18886 31.875 7.9504 31.9738 7.77459 32.1496C7.59877 32.3254 7.5 32.5639 7.5 32.8125V33.75H1.875C1.62636 33.75 1.3879 33.8488 1.21209 34.0246C1.03627 34.2004 0.9375 34.4389 0.9375 34.6875C0.9375 34.9361 1.03627 35.1746 1.21209 35.3504C1.3879 35.5262 1.62636 35.625 1.875 35.625H7.5V56.25H1.875C1.62636 56.25 1.3879 56.3488 1.21209 56.5246C1.03627 56.7004 0.9375 56.9389 0.9375 57.1875C0.9375 57.4361 1.03627 57.6746 1.21209 57.8504C1.3879 58.0262 1.62636 58.125 1.875 58.125H7.5V59.0625C7.5 59.3111 7.59877 59.5496 7.77459 59.7254C7.9504 59.9012 8.18886 60 8.4375 60H14.0625C14.3111 60 14.5496 59.9012 14.7254 59.7254C14.9012 59.5496 15 59.3111 15 59.0625V57.1875H31.8019C33.8702 57.1908 35.8914 56.57 37.6012 55.4062L57.1116 42.135C57.7127 41.7267 58.2049 41.1775 58.5449 40.5353C58.885 39.893 59.0627 39.1773 59.0625 38.4506C59.0697 37.6424 58.8538 36.8478 58.4384 36.1544C58.0231 35.461 57.4244 34.8957 56.7084 34.5206ZM30 8.4375C30 6.69702 30.6914 5.02782 31.9221 3.79711C33.1528 2.5664 34.822 1.875 36.5625 1.875C38.303 1.875 39.9722 2.5664 41.2029 3.79711C42.4336 5.02782 43.125 6.69702 43.125 8.4375V12.1875H30V8.4375ZM22.5 14.0625H50.625V35.7487L41.9166 41.5538C41.5911 40.6426 40.9921 39.8543 40.2016 39.2965C39.4111 38.7387 38.4675 38.4387 37.5 38.4375H28.3125C26.5828 38.4353 24.9049 37.8467 23.5528 36.7678C23.2187 36.5035 22.867 36.2623 22.5 36.0459V14.0625ZM13.125 58.125H9.375V33.75H13.125V58.125ZM56.0569 40.5844L36.5466 53.8519C35.1484 54.8059 33.4945 55.315 31.8019 55.3125H15V36.5625H17.625C19.3547 36.5647 21.0326 37.1533 22.3847 38.2322C24.0687 39.5758 26.1582 40.3091 28.3125 40.3125H37.5C38.244 40.3125 38.9576 40.6073 39.4848 41.1323C40.0119 41.6573 40.3095 42.3698 40.3125 43.1138V43.1372C40.3093 43.881 40.0115 44.5932 39.4844 45.1181C38.9573 45.6429 38.2438 45.9375 37.5 45.9375H26.25C26.0014 45.9375 25.7629 46.0363 25.5871 46.2121C25.4113 46.3879 25.3125 46.6264 25.3125 46.875C25.3125 47.1236 25.4113 47.3621 25.5871 47.5379C25.7629 47.7137 26.0014 47.8125 26.25 47.8125H37.5C38.6525 47.8111 39.7643 47.3857 40.6234 46.6173C41.4824 45.849 42.0288 44.7915 42.1584 43.6462L53.1741 36.3028C53.5629 36.0438 54.0147 35.8951 54.4813 35.8726C54.9479 35.8501 55.4119 35.9546 55.8239 36.1751C56.2358 36.3955 56.5801 36.7236 56.8203 37.1243C57.0604 37.5251 57.1873 37.9834 57.1875 38.4506C57.1875 38.8715 57.0844 39.2861 56.8873 39.658C56.6903 40.0299 56.4051 40.348 56.0569 40.5844Z"/>
</mask>
<path d="M56.7084 34.5206C56.0624 34.1692 55.3382 33.986 54.6028 33.988C53.8673 33.9899 53.1442 34.177 52.5 34.5319V13.125C52.5 12.8764 52.4012 12.6379 52.2254 12.4621C52.0496 12.2863 51.8111 12.1875 51.5625 12.1875H45V8.4375C45 6.19974 44.111 4.05362 42.5287 2.47129C40.9464 0.888948 38.8003 0 36.5625 0C34.3247 0 32.1786 0.888948 30.5963 2.47129C29.0139 4.05362 28.125 6.19974 28.125 8.4375V12.1875H21.5625C21.3139 12.1875 21.0754 12.2863 20.8996 12.4621C20.7238 12.6379 20.625 12.8764 20.625 13.125V35.1816C19.6581 34.8567 18.6451 34.6899 17.625 34.6875H15V32.8125C15 32.5639 14.9012 32.3254 14.7254 32.1496C14.5496 31.9738 14.3111 31.875 14.0625 31.875H8.4375C8.18886 31.875 7.9504 31.9738 7.77459 32.1496C7.59877 32.3254 7.5 32.5639 7.5 32.8125V33.75H1.875C1.62636 33.75 1.3879 33.8488 1.21209 34.0246C1.03627 34.2004 0.9375 34.4389 0.9375 34.6875C0.9375 34.9361 1.03627 35.1746 1.21209 35.3504C1.3879 35.5262 1.62636 35.625 1.875 35.625H7.5V56.25H1.875C1.62636 56.25 1.3879 56.3488 1.21209 56.5246C1.03627 56.7004 0.9375 56.9389 0.9375 57.1875C0.9375 57.4361 1.03627 57.6746 1.21209 57.8504C1.3879 58.0262 1.62636 58.125 1.875 58.125H7.5V59.0625C7.5 59.3111 7.59877 59.5496 7.77459 59.7254C7.9504 59.9012 8.18886 60 8.4375 60H14.0625C14.3111 60 14.5496 59.9012 14.7254 59.7254C14.9012 59.5496 15 59.3111 15 59.0625V57.1875H31.8019C33.8702 57.1908 35.8914 56.57 37.6012 55.4062L57.1116 42.135C57.7127 41.7267 58.2049 41.1775 58.5449 40.5353C58.885 39.893 59.0627 39.1773 59.0625 38.4506C59.0697 37.6424 58.8538 36.8478 58.4384 36.1544C58.0231 35.461 57.4244 34.8957 56.7084 34.5206ZM30 8.4375C30 6.69702 30.6914 5.02782 31.9221 3.79711C33.1528 2.5664 34.822 1.875 36.5625 1.875C38.303 1.875 39.9722 2.5664 41.2029 3.79711C42.4336 5.02782 43.125 6.69702 43.125 8.4375V12.1875H30V8.4375ZM22.5 14.0625H50.625V35.7487L41.9166 41.5538C41.5911 40.6426 40.9921 39.8543 40.2016 39.2965C39.4111 38.7387 38.4675 38.4387 37.5 38.4375H28.3125C26.5828 38.4353 24.9049 37.8467 23.5528 36.7678C23.2187 36.5035 22.867 36.2623 22.5 36.0459V14.0625ZM13.125 58.125H9.375V33.75H13.125V58.125ZM56.0569 40.5844L36.5466 53.8519C35.1484 54.8059 33.4945 55.315 31.8019 55.3125H15V36.5625H17.625C19.3547 36.5647 21.0326 37.1533 22.3847 38.2322C24.0687 39.5758 26.1582 40.3091 28.3125 40.3125H37.5C38.244 40.3125 38.9576 40.6073 39.4848 41.1323C40.0119 41.6573 40.3095 42.3698 40.3125 43.1138V43.1372C40.3093 43.881 40.0115 44.5932 39.4844 45.1181C38.9573 45.6429 38.2438 45.9375 37.5 45.9375H26.25C26.0014 45.9375 25.7629 46.0363 25.5871 46.2121C25.4113 46.3879 25.3125 46.6264 25.3125 46.875C25.3125 47.1236 25.4113 47.3621 25.5871 47.5379C25.7629 47.7137 26.0014 47.8125 26.25 47.8125H37.5C38.6525 47.8111 39.7643 47.3857 40.6234 46.6173C41.4824 45.849 42.0288 44.7915 42.1584 43.6462L53.1741 36.3028C53.5629 36.0438 54.0147 35.8951 54.4813 35.8726C54.9479 35.8501 55.4119 35.9546 55.8239 36.1751C56.2358 36.3955 56.5801 36.7236 56.8203 37.1243C57.0604 37.5251 57.1873 37.9834 57.1875 38.4506C57.1875 38.8715 57.0844 39.2861 56.8873 39.658C56.6903 40.0299 56.4051 40.348 56.0569 40.5844Z" fill="#0F0F0F" stroke="#0F0F0F" mask="url(#path-1-inside-1_2001_231)"/>
<path d="M42.3492 25.4742C40.8143 27.0091 38.7332 27.8725 36.5625 27.875C34.3918 27.8725 32.3107 27.0091 30.7758 25.4742C29.2409 23.9392 28.3774 21.8581 28.375 19.6874V17.8125C28.375 17.6302 28.4474 17.4553 28.5764 17.3264C28.7053 17.1974 28.8802 17.125 29.0625 17.125C29.2448 17.125 29.4197 17.1974 29.5486 17.3264C29.6776 17.4553 29.75 17.6302 29.75 17.8125V19.6875C29.75 21.4943 30.4677 23.2271 31.7453 24.5047C33.0229 25.7823 34.7557 26.5 36.5625 26.5C38.3693 26.5 40.1021 25.7823 41.3797 24.5047C42.6573 23.2271 43.375 21.4943 43.375 19.6875V17.8125C43.375 17.6302 43.4474 17.4553 43.5764 17.3264C43.7053 17.1974 43.8802 17.125 44.0625 17.125C44.2448 17.125 44.4197 17.1974 44.5486 17.3264C44.6776 17.4553 44.75 17.6302 44.75 17.8125V19.6872C44.7476 21.858 43.8842 23.9392 42.3492 25.4742Z" fill="#0F0F0F" stroke="#0F0F0F" stroke-width="0.5"/>
</g>
<defs>
<clipPath id="clip0_2001_231">
<rect width="60" height="60" fill="white"/>
</clipPath>
</defs>
</svg>
