<svg width="60" height="60" viewBox="0 0 60 60" fill="none" xmlns="http://www.w3.org/2000/svg">
<path d="M58.956 11.2148C58.7599 9.85813 39.137 13.276 33.2139 24.7372C27.4373 35.0944 32.3251 43.2413 39.7506 46.4759C40.0532 50.1544 38.0806 53.6258 34.4358 53.6576H27.3351V20.3542L33.4501 12.1367L36.7184 16.5231L37.914 15.4851L34.2208 10.5251V5.51494C34.2209 5.40623 34.2012 5.29857 34.1627 5.19811C34.1242 5.09766 34.0678 5.00638 33.9966 4.92952C33.9254 4.85265 33.8408 4.79171 33.7478 4.75018C33.6547 4.70865 33.555 4.68735 33.4543 4.6875H16.1077C15.9044 4.6875 15.7094 4.77468 15.5657 4.92985C15.422 5.08503 15.3412 5.29549 15.3412 5.51494V10.5228L8.62523 19.5438C8.58491 19.5993 8.55126 19.6601 8.52507 19.7248L8.51558 19.7418C8.349 29.9977 8.50925 44.2599 8.45548 54.4851C8.45548 54.5938 8.47534 54.7015 8.51393 54.802C8.55251 54.9024 8.60907 54.9937 8.68035 55.0706C8.75164 55.1474 8.83626 55.2083 8.92938 55.2498C9.02249 55.2914 9.12228 55.3126 9.22302 55.3125H34.4432C35.4266 55.2879 36.3943 55.0415 37.2842 54.5892C38.1741 54.1368 38.9665 53.4885 39.6105 52.6859C40.2545 51.8833 40.7359 50.9441 41.0237 49.9287C41.3114 48.9134 41.3993 47.8442 41.2815 46.79C47.2236 47.0598 53.0202 43.2014 52.6333 34.8952C52.3697 22.5884 58.8632 12.2073 58.9286 12.1048C59.0109 11.9746 59.0572 11.8217 59.0621 11.6641C59.0669 11.5065 59.0301 11.3507 58.956 11.2148ZM9.98951 20.8891H25.8042V28.3713L9.98951 33.0867V20.8891ZM9.98951 34.8053L25.8042 30.0888V39.1018L9.98951 43.8172V34.8053ZM16.8721 6.34351H32.6867V9.9856H16.8721V6.34351ZM16.4756 11.6427H31.8538L26.2006 19.2342H10.8235L16.4756 11.6427ZM9.98951 45.5346L25.8042 40.8193V53.6565H9.98951V45.5346ZM51.0993 34.9339C51.4377 42.3512 46.4107 45.307 41.3627 45.1329C41.8519 37.25 44.0459 25.3654 52.1915 17.2299C52.3408 17.081 52.4292 16.8741 52.4372 16.6548C52.4452 16.4354 52.3722 16.2217 52.2342 16.0605C52.0962 15.8993 51.9046 15.8039 51.7014 15.7952C51.4983 15.7866 51.3002 15.8654 51.1509 16.0144C42.7365 24.4185 40.399 36.5558 39.8561 44.7118C33.1085 41.4316 29.586 34.4946 34.5518 25.5612C39.4164 16.423 52.2759 13.4672 56.7852 12.7001C54.9327 16.0998 50.8821 24.7713 51.0993 34.9339Z" fill="#0F0F0F" stroke="#0F0F0F" stroke-width="0.5"/>
</svg>
