<svg width="34" height="34" viewBox="0 0 34 34" fill="none" xmlns="http://www.w3.org/2000/svg">
<path d="M31.1666 14.1666V21.2499C31.1666 28.3333 28.3333 31.1666 21.25 31.1666H12.75C5.66665 31.1666 2.83331 28.3333 2.83331 21.2499V12.7499C2.83331 5.66659 5.66665 2.83325 12.75 2.83325H19.8333" stroke="white" stroke-width="1.5" stroke-linecap="round" stroke-linejoin="round"/>
<path d="M31.1666 14.1666H25.5C21.25 14.1666 19.8333 12.7499 19.8333 8.49992V2.83325L31.1666 14.1666Z" stroke="white" stroke-width="1.5" stroke-linecap="round" stroke-linejoin="round"/>
<path d="M10.1521 22.8584H8.0489V21.8903H10.1521C10.5184 21.8903 10.8143 21.8384 11.04 21.7346C11.2657 21.6308 11.4303 21.4881 11.5339 21.3065C11.6412 21.1216 11.6948 20.9108 11.6948 20.6741C11.6948 20.4503 11.6412 20.2411 11.5339 20.0465C11.4303 19.8487 11.2657 19.6897 11.04 19.5697C10.8143 19.4497 10.5184 19.3897 10.1521 19.3897H8.4762V25.5001H7.08331V18.4167H10.1521C10.7773 18.4167 11.3082 18.514 11.7448 18.7086C12.185 18.9 12.5198 19.1659 12.7492 19.5065C12.9786 19.8438 13.0932 20.2297 13.0932 20.6643C13.0932 21.1216 12.9786 21.5141 12.7492 21.8417C12.5198 22.1692 12.185 22.4206 11.7448 22.5957C11.3082 22.7709 10.7773 22.8584 10.1521 22.8584Z" fill="white"/>
<path d="M16.6892 25.5001H14.9634L14.9745 24.532H16.6892C17.1887 24.532 17.6067 24.4363 17.9434 24.2449C18.2837 24.0536 18.539 23.7795 18.7092 23.4228C18.8831 23.066 18.97 22.6411 18.97 22.1481V21.7638C18.97 21.3811 18.92 21.0422 18.8202 20.747C18.724 20.4519 18.5797 20.2038 18.3873 20.0027C18.1986 19.8016 17.9656 19.6492 17.6881 19.5454C17.4143 19.4416 17.098 19.3897 16.7392 19.3897H14.9301V18.4167H16.7392C17.2756 18.4167 17.7658 18.4962 18.2097 18.6551C18.6537 18.8108 19.0366 19.0362 19.3584 19.3314C19.684 19.6265 19.9337 19.98 20.1076 20.3919C20.2815 20.8038 20.3684 21.2644 20.3684 21.7735V22.1481C20.3684 22.6573 20.2815 23.1179 20.1076 23.5298C19.9337 23.9417 19.684 24.2952 19.3584 24.5903C19.0329 24.8822 18.6444 25.1076 18.1931 25.2666C17.7454 25.4222 17.2442 25.5001 16.6892 25.5001ZM15.7347 18.4167V25.5001H14.3418V18.4167H15.7347Z" fill="white"/>
<path d="M23.1597 18.4167V25.5001H21.7669V18.4167H23.1597ZM26.456 21.5157V22.4838H22.8046V21.5157H26.456ZM26.9166 18.4167V19.3897H22.8046V18.4167H26.9166Z" fill="white"/>
</svg>
