<svg width="24" height="25" viewBox="0 0 24 25" fill="none" xmlns="http://www.w3.org/2000/svg">
<path d="M2.06999 5.09988C2.86999 1.63988 8.07999 1.63988 8.86999 5.09988C9.33999 7.12988 8.04999 8.84988 6.92999 9.91988C6.10999 10.6999 4.81999 10.6899 3.99999 9.91988C2.88999 8.84988 1.59999 7.12988 2.06999 5.09988Z" stroke="#0F0F0F" stroke-width="2"/>
<path d="M15.07 17.0999C15.87 13.6399 21.11 13.6399 21.91 17.0999C22.38 19.1299 21.09 20.8499 19.96 21.9199C19.14 22.6999 17.84 22.6899 17.02 21.9199C15.89 20.8499 14.6 19.1299 15.07 17.0999Z" stroke="#0F0F0F" stroke-width="2"/>
<path d="M12 5.5H14.68C16.53 5.5 17.39 7.79 16 9.01L8.01001 16C6.62001 17.21 7.48001 19.5 9.32001 19.5H12" stroke="#0F0F0F" stroke-width="2" stroke-linecap="round" stroke-linejoin="round"/>
<path d="M5.48622 6H5.49777" stroke="#0F0F0F" stroke-width="2" stroke-linecap="round" stroke-linejoin="round"/>
<path d="M18.4862 18H18.4978" stroke="#0F0F0F" stroke-width="2" stroke-linecap="round" stroke-linejoin="round"/>
</svg>
