<svg width="29" height="29" viewBox="0 0 29 29" fill="none" xmlns="http://www.w3.org/2000/svg">
<path d="M22.8 7.69541L19.9949 22.3395C19.9949 22.3395 19.6024 23.3548 18.5243 22.8678L12.6106 18.1724C12.3087 17.9327 12.2732 17.4874 12.5333 17.2029V17.2029C13.4075 16.39 19.6756 10.5892 19.9718 10.303C20.4305 9.85994 20.1458 9.59615 19.6132 9.93087L10.0121 16.2449C9.75209 16.4159 9.42737 16.4561 9.13356 16.3537L5.73645 15.17C5.73645 15.17 5.12849 14.9461 5.07 14.4592C5.01075 13.9714 5.75645 13.7076 5.75645 13.7076L21.5056 7.30968C21.5056 7.30968 22.8 6.72073 22.8 7.69541Z" fill="white"/>
</svg>
