<svg width="29" height="29" viewBox="0 0 29 29" fill="none" xmlns="http://www.w3.org/2000/svg">
<path d="M21.2 7.72C22.88 9.4 23.92 11.6 23.92 14C23.92 18.88 19.84 22.88 14.92 22.88C13.44 22.88 12 22.48 10.68 21.8L6 23L7.24 18.4C6.48 17.08 6.04 15.56 6.04 13.96C6.04 9.08 10.04 5.08 14.92 5.08C17.32 5.08 19.56 6.04 21.2 7.72ZM14.92 21.36C19 21.36 22.4 18.04 22.4 14C22.4 12 21.56 10.16 20.16 8.76C18.76 7.36 16.92 6.6 14.96 6.6C10.88 6.6 7.56 9.92 7.56 13.96C7.56 15.36 7.96 16.72 8.68 17.92L8.88 18.2L8.12 20.92L10.92 20.16L11.16 20.32C12.32 21 13.6 21.36 14.92 21.36ZM19 15.84C19.2 15.96 19.36 16 19.4 16.12C19.48 16.2 19.48 16.64 19.28 17.16C19.08 17.68 18.2 18.16 17.8 18.2C17.08 18.32 16.52 18.28 15.12 17.64C12.88 16.68 11.44 14.44 11.32 14.32C11.2 14.16 10.44 13.12 10.44 12C10.44 10.92 11 10.4 11.2 10.16C11.4 9.92 11.64 9.88 11.8 9.88C11.92 9.88 12.08 9.88 12.2 9.88C12.36 9.88 12.52 9.84 12.72 10.28C12.88 10.72 13.36 11.8 13.4 11.92C13.44 12.04 13.48 12.16 13.4 12.32C13 13.16 12.52 13.12 12.76 13.52C13.64 15 14.48 15.52 15.8 16.16C16 16.28 16.12 16.24 16.28 16.12C16.4 15.96 16.84 15.44 16.96 15.24C17.12 15 17.28 15.04 17.48 15.12C17.68 15.2 18.76 15.72 19 15.84Z" fill="white"/>
</svg>
