<svg width="264" height="276" viewBox="0 0 264 276" fill="none" xmlns="http://www.w3.org/2000/svg">
<g clip-path="url(#clip0_18_10240)">
<path d="M78.841 158.879C78.8498 158.919 78.8601 158.955 78.8704 158.991C78.8786 158.994 78.8812 158.999 78.8894 159.002L78.8396 158.883L78.841 158.879Z" fill="#D7C9A9" fill-opacity="0.7"/>
<path d="M69.7076 221.241C69.7249 221.284 69.7365 221.33 69.7538 221.374C69.7594 221.371 69.7635 221.373 69.7677 221.374L69.709 221.237L69.7076 221.241Z" fill="#D7C9A9" fill-opacity="0.7"/>
<path d="M106.294 230.663C106.266 230.69 106.232 230.706 106.204 230.734C106.259 230.762 106.31 230.79 106.365 230.818L106.294 230.663Z" fill="#D7C9A9" fill-opacity="0.7"/>
<path d="M109.135 225.165C109.122 225.23 109.095 225.281 109.077 225.344C109.123 225.333 109.158 225.312 109.202 225.305L109.135 225.165Z" fill="#D7C9A9" fill-opacity="0.7"/>
<path d="M239.203 145.791C238.228 145.535 237.284 145.124 236.349 144.739C231.934 142.895 227.076 142.715 222.619 141.019C219.391 139.788 217.187 141.732 215.587 143.944C213.231 147.209 210.251 148.735 206.361 148.636C205.268 148.608 204.425 149.277 203.453 149.394C201.37 149.649 199.205 150.705 197.186 149.098C195.871 148.054 194.709 149.209 193.485 149.409C191.025 149.814 188.675 151.289 185.956 150.377C186.469 148.673 187.761 148.608 188.829 148.404C193.542 147.512 198.267 146.74 202.981 145.88C204.325 145.63 205.989 145.97 206.758 143.776C200.32 144.162 194.149 145.275 187.979 146.308C186.545 146.55 185.236 146.924 183.749 146.252C181.606 145.287 179.512 146.889 177.081 146.752C177.226 145.197 178.475 144.941 179.448 144.847C184.673 144.354 189.652 142.743 194.747 141.646C196.206 141.334 196.886 141.035 197.229 139.35C197.639 137.359 196.391 137.193 195.316 136.573C194.962 136.369 194.651 136.069 194.196 135.714C194.789 134.256 196.371 135.199 197.135 134.423C197.311 134.109 197.209 133.897 196.888 133.705C190.405 129.879 183.214 127.549 176.522 124.276C169.716 120.948 161.951 118.945 156.733 112.529C153.902 109.043 151.279 108.875 147.851 110.41C148.081 110.77 148.219 111.297 148.541 111.448C152.484 113.329 155.604 116.207 158.608 119.318C159.845 120.594 162.283 119.856 163.694 121.639C161.063 124.069 157.619 121.704 155.011 123.161C152.024 124.825 149.402 122.93 146.646 122.887C146.415 121.78 148.018 121.625 147.451 120.367C144.644 121.035 141.782 122.264 138.783 121.374C138.066 119.989 139.379 119.918 139.903 119.378C141.034 118.208 140.026 117.295 139.624 116.253C139.181 115.103 138.337 115.21 137.489 115.408C135.645 115.839 133.841 116.448 131.927 116.437C130.521 116.429 129.051 116.853 127.196 115.568C131.499 112.892 136.573 115.061 140.639 112.544C137.889 109.328 134.659 110.71 131.715 111.293C128.291 111.975 124.827 112.101 121.397 112.628C120.867 112.711 120.22 112.669 119.705 111.907C120.309 110.114 122.052 110.31 123.499 109.925C126.498 109.12 129.895 109.119 131.941 105.852C130.842 104.527 129.425 104.747 128.007 104.865C124.781 105.13 121.798 106.349 118.708 107.15C116.701 107.663 114.719 108.107 112.825 106.237C114.993 103.728 117.973 103.78 120.742 103.744C122.998 103.722 125.106 103.55 126.975 102.296C128.321 101.397 129.778 101.734 131.2 101.603C132.697 101.458 134.382 101.977 135.686 100.538C134.642 99.0421 133.095 99.1466 131.766 98.7758C131.786 98.8107 131.805 98.8359 131.821 98.8694C131.785 98.8522 131.744 98.8377 131.711 98.8261C130.848 100.077 129.595 100.61 128.129 100.693C125 100.881 121.864 101.034 118.734 101.198C118.746 101.179 118.769 101.164 118.786 101.142C118.768 101.154 118.751 101.176 118.733 101.188C115.067 103.137 111.061 103.275 106.509 103.528C108.012 101.026 111.147 103.398 112.171 100.886C110.331 99.7173 108.265 101.57 105.976 100.387C107.974 98.7521 110.328 98.6345 112.106 98.783C115.41 99.0605 118.147 97.6063 120.722 96.3737C122.942 95.3083 124.635 95.4221 126.267 96.5083C127.982 97.6512 129.881 98.116 131.715 98.8275C131.728 98.8042 131.746 98.792 131.762 98.7743C131.766 98.7758 131.771 98.7731 131.775 98.7745C130.387 95.718 127.398 94.4973 124.769 92.8837C122.656 91.5819 121.563 94.2512 119.775 94.3269L119.96 94.2344C119.912 94.2267 119.87 94.2163 119.823 94.2045C119.81 94.2416 119.795 94.2829 119.778 94.3186C115.336 96.6806 110.371 96.2773 105.616 96.9505C104.501 97.1149 103.15 97.6366 102.459 96.3487C101.856 95.2214 103.373 94.7023 103.621 93.7635C103.686 93.5126 103.567 93.2199 103.517 92.8355C98.8993 93.5248 94.2677 94.1627 89.4485 93.9916C89.794 92.5117 90.5813 92.2368 91.2268 92.1671C95.6991 91.7052 100.189 91.4029 104.665 90.9051C107.032 90.6438 107.116 93.7327 108.564 93.6999C109.978 93.6734 109.268 90.5866 111.649 90.3255C116.802 89.7599 121.895 88.6534 127.051 88.1724C144.438 86.5381 161.513 88.9859 178.389 92.8398C181.332 93.5102 184.772 93.4923 187.194 95.9428C187.372 96.1216 187.732 96.1788 188.007 96.1875C198.329 96.4828 206.289 103.086 215.465 106.45C219.704 108.004 222.976 110.75 225.703 114.255C226.057 114.709 226.597 115.109 226.746 115.621C228.029 120.251 230.945 124.111 232.749 128.512C233.651 130.714 234.962 132.922 236.614 134.614C239.408 137.479 239.287 141.28 240.5 144.637C240.788 145.449 240.09 146.025 239.213 145.79L239.203 145.791ZM204.975 152.976C209.182 150.336 212.725 149.277 217.257 149.329C213.729 153.633 209.748 153.094 204.975 152.976ZM171.666 139.277C171.6 138.98 171.533 138.683 171.473 138.392C175.423 136.363 179.462 134.592 184.031 134.434C184.749 134.408 185.484 134.138 186.156 134.546C186.507 134.759 186.896 135.063 187.053 135.42C187.307 136.025 186.949 136.544 186.435 136.869C184.916 137.828 183.17 138.021 181.443 138.215C178.188 138.577 174.933 138.924 171.675 139.28L171.666 139.277ZM196.14 138.878C191.269 140.22 187.358 142.166 182.872 141.115C186.848 139.512 190.182 135.06 196.14 138.878ZM164.784 139.623C163.848 136.295 166.195 135.553 167.5 133.993C165.087 133.031 163.192 133.909 161.774 133.516C159.946 132.445 161.518 130.64 160.117 129.343C158.14 127.509 156.133 126.881 153.632 127.481C150.108 128.328 146.401 128.001 142.915 129.149C142.595 129.254 142.145 128.966 141.452 128.777C142.877 126.587 145.058 125.814 147.04 125.793C152.459 125.735 157.64 124.195 162.979 123.732C164.948 123.562 166.434 123.975 168.19 125.081C171.965 127.465 176.109 129.274 180.115 131.294C180.51 131.489 180.965 131.394 181.558 130.776C181.549 129.223 179.706 129.061 178.897 127.912C180.575 127.779 182.078 128.42 183.524 129.088C186.16 130.3 188.701 131.702 191.506 132.514C192.166 132.705 192.944 133.114 192.693 134.037C192.467 134.849 191.688 135.062 190.963 135.001C189.047 134.85 187.241 134.307 185.71 133.103C184.576 132.216 183.5 131.707 182.256 132.898C181.108 133.998 179.51 133.76 178.142 134.118C173.579 135.323 168.855 135.998 164.785 139.619L164.784 139.623ZM163.304 141.85C164.327 141.036 165.142 141.04 166.071 141.27C165.37 142.128 164.667 142.688 163.304 141.85ZM153.627 139.001C155.927 137.259 158.167 135.861 161.241 135.844C158.999 138.128 158.215 138.446 153.627 139.001ZM144.535 135.505C144.613 134.019 144.557 133.14 144.727 132.304C144.972 131.095 147.814 130.249 148.096 131.226C148.62 133.077 149.635 132.302 150.366 131.961C153.05 130.697 155.861 130.597 159.78 130.785C154.501 133.483 149.648 134.303 144.537 135.51L144.535 135.505ZM133.683 127.692C133.935 127.057 134.551 126.819 135.289 126.856C135.703 126.877 136.143 127.143 135.999 127.589C135.759 128.336 135.04 128.56 134.333 128.594C133.892 128.611 133.599 128.326 133.686 127.698L133.683 127.692ZM123.698 233.992C124.212 234.164 124.72 234.339 125.229 234.513C124.633 236.165 123.23 236.595 121.708 236.852C121.856 235.563 123.361 235.16 123.694 233.991L123.698 233.992ZM152.453 163.736C152.661 166.656 155.268 168.726 154.607 172.244C154.002 175.475 154.627 179.104 156.267 182.341C157.777 185.339 157.534 188.805 157.569 191.993C157.631 198.152 157.401 204.287 159.181 210.282C155.782 210.973 152.45 211.21 152.044 215.412C152.022 215.66 151.779 215.941 151.564 216.102C147.205 219.306 148.78 223.333 150.446 226.966C151.878 230.085 151.591 233.475 152.75 236.627C153.228 237.928 151.278 238.174 150.228 237.447C148.226 236.054 145.926 235.94 143.697 235.349C141.217 234.693 139.01 235.104 136.97 236.172C131.28 239.144 125.354 240.115 118.804 238.962C119.286 237.465 120.333 237.045 121.644 236.992C121.824 237.547 122.181 238.059 122.748 237.975C126.772 237.406 130.192 235.459 133.088 232.738C134.731 231.191 134.117 229.41 131.542 227.528C131.136 231.4 129.343 233.976 125.345 234.406C125.599 233.042 127.731 231.937 125.573 229.816C125.298 231.543 124.344 232.605 123.63 233.816C120.711 233.395 118.839 235.419 116.943 237.025C115.091 238.587 113.558 238.622 110.93 237.218C115.236 234.743 117.884 231.66 119.666 227.274C117.397 227.626 116.712 229.07 115.976 230.356C115.404 231.362 114.883 232.339 114.041 233.203C110.883 236.431 107.522 238.487 102.902 236.171C101.458 235.444 99.7684 236.78 97.9114 235.698C100.371 233.283 103.82 232.832 106.193 230.725C105.232 230.219 104.07 229.689 105.683 228.558C106.996 227.633 108.582 227.063 109.063 225.33C106.222 226.134 104.063 227.843 102.31 230.225C99.4193 234.155 93.6286 235.767 89.1297 233.741C93.241 230.937 97.8019 229.685 101.973 227.738C97.2931 227.105 97.1937 226.94 95.4593 227.996C93.4078 229.241 90.9072 228.908 88.9013 230.155C88.6525 230.309 88.3821 230.432 88.1658 230.625C85.7785 232.796 85.7999 232.762 83.0826 231.466C80.9972 230.48 78.8541 229.632 76.7544 228.674C74.2308 227.524 74.1749 227.012 76.4161 225.439C77.0291 225.015 77.5202 224.607 77.5683 223.84C76.6462 223.919 75.7524 223.641 74.7779 224.026C71.391 225.339 71.0271 225.123 69.7427 221.365C67.5338 221.19 65.8204 219.727 64.6402 218.29C62.204 215.328 58.2664 213.852 56.9508 209.749C55.5552 205.399 55.3795 201.019 55.5232 196.562C55.568 195.12 55.3667 193.759 55.1307 192.324C54.0731 185.977 51.4111 180.224 49.2184 174.27C47.9401 170.798 45.6933 168.929 42.5095 167.904C39.4081 166.909 36.8262 168.673 34.3995 170.18C30.199 172.79 30.2489 172.938 26.071 170.119C25.3005 169.597 24.5277 169.436 23.6822 169.245C20.2743 168.461 20.0527 168.17 19.8335 164.61C19.7953 164.035 19.8332 163.454 19.817 162.882C19.7323 159.928 18.2289 158.474 15.3469 158.526C10.2228 158.628 7.16224 155.4 8.06181 150.257C8.58766 147.253 8.61621 144.227 9.16414 141.226C9.59728 138.853 9.40555 136.557 6.74703 134.831C3.32308 132.608 2.67526 128.503 4.78725 124.772C6.7125 121.36 9.03198 118.171 8.84222 113.963C8.79146 112.766 10.2834 112.516 10.6608 111.814C11.8386 109.629 13.872 107.607 12.8892 104.702C12.5673 103.748 12.3015 102.754 12.6942 101.732C13.8443 101.032 14.3607 102.013 14.7294 102.663C16.3487 105.536 18.8038 107.432 21.5785 109.078C22.5335 109.643 23.15 110.747 24.0403 111.455C24.5911 111.89 25.4211 112.099 25.9493 111.311C26.4676 110.537 26.1064 109.774 25.3664 109.559C23.3447 108.958 22.0135 107.305 20.2088 106.391C18.9003 105.725 17.8575 104.726 17.4615 103.273C17.9039 102.412 18.6612 102.275 19.3365 102.555C24.151 104.553 27.5178 108.293 30.7687 111.941C30.5047 113.269 29.0412 112.609 28.809 113.623C28.7551 114.17 29.1799 114.306 29.5564 114.513C30.983 115.304 33.6053 114.227 33.6891 117.158C33.6961 117.309 34.1204 117.552 34.3701 117.579C39.4065 118.054 42.0783 122.004 45.0683 125.236C46.6677 126.969 45.2522 130.013 46.6537 132.15C44.5415 137.459 46.6079 142.575 47.563 147.675C48.2424 151.322 48.0856 154.883 47.667 158.464C47.3347 161.313 47.104 164.124 47.6732 166.966C50.1138 160.436 51.2539 153.73 49.9295 146.837C48.9743 141.895 49.0669 136.807 47.6835 131.923C47.4024 130.933 47.3124 129.611 48.1682 128.589C50.3781 128.788 51.6883 129.909 52.6358 131.993C53.7007 134.323 55.8743 135.952 57.4686 137.897C61.3109 142.576 66.8047 146.118 68.3339 152.535C68.4228 152.9 68.793 153.388 69.1274 153.478C72.4921 154.358 73.3413 157.549 75.1877 159.857C77.0736 162.198 79.4518 164.141 81.3726 166.461C88.0384 174.489 96.1115 181.034 104.256 187.349C110.537 192.223 115.865 197.959 121.549 203.379C123.037 204.799 124.2 206.389 124.579 208.495C124.701 209.174 125.149 209.81 125.496 210.443C128.028 215.091 131.723 218.794 135.327 222.571C136.681 223.99 138.47 224.658 140.347 225.027C141.515 225.249 141.923 224.566 141.592 223.479C141.081 221.813 139.68 220.911 138.335 220.084C133.092 216.871 129.676 212.19 127.162 206.69C125.831 203.774 124.071 201.194 121.391 199.214C116.636 195.705 112.424 191.574 108.549 187.121C108.054 186.552 107.578 186.022 106.88 185.809C104.263 185.016 102.562 183.033 100.59 181.317C94.4791 176.002 88.3202 170.744 82.4942 165.107C80.681 163.349 79.3947 161.424 78.8584 158.988C75.5716 157.69 74.1412 154.53 72.6721 151.835C71.8472 150.323 71.0248 149.37 69.7874 148.279C67.752 146.494 65.7286 144.188 64.7008 141.951C63.3468 139.008 60.6336 137.713 59.0254 135.229C57.4024 132.721 57.0764 132.936 59.7749 131.853C60.3011 131.649 60.8059 131.4 61.6086 131.042C60.523 129.573 59.4221 129.83 58.1793 130.293C55.0692 131.439 55.0403 131.429 53.023 128.698C52.3168 127.744 51.6043 126.833 50.433 126.462C49.4197 126.142 48.5301 125.787 48.452 124.497C48.3758 123.175 47.3305 122.551 46.4044 121.839C45.7224 121.316 44.723 120.759 44.5776 120.067C43.8693 116.726 41.2431 115.749 38.5717 114.678C36.6841 113.919 35.1229 112.84 34.0148 110.922C32.0966 107.595 28.6073 105.78 25.9145 103.179C22.9824 100.349 18.7045 99.5883 15.9596 96.49C15.5448 96.0234 14.5303 95.6148 14.0017 95.7999C11.0196 96.8195 9.96388 94.674 9.29491 92.7065C8.66012 90.8393 7.43239 89.5896 6.10066 88.201C9.94734 87.9365 12.3986 90.7502 15.5034 91.9466C18.6988 93.1749 21.5617 95.2285 25.086 96.2338C25.6802 93.5091 22.6392 94.183 22.0674 92.4262C24.605 91.9974 26.9173 93.1281 29.305 93.2825C39.4535 93.939 49.3503 96.1642 59.2897 98.177C63.2557 98.9805 67.3397 99.4495 71.3827 99.5745C79.7991 99.8342 87.1425 102.914 94.1061 107.309C99.8528 110.936 106.213 113.572 111.624 117.717C116.443 121.412 121.188 125.238 125.628 129.366C127.572 131.174 129.008 133.737 129.175 136.656C129.372 140.253 131.729 142.189 134.569 143.757C135.077 144.038 135.637 144.212 136.166 144.459C140.327 146.403 143.338 149.275 145.988 153.259C148.264 156.689 148.692 161.287 152.442 163.742L152.453 163.736ZM51.4918 82.9356C53.2953 81.2499 54.4382 80.4921 56.5223 80.377C55.389 82.1596 54.2158 82.8325 51.4918 82.9356ZM58.2424 82.4781C57.6045 83.6043 56.8377 84.2022 55.0962 84.3313C56.2205 83.1398 56.8666 82.4111 58.2424 82.4781ZM56.7718 87.2292C57.9526 86.364 59.0836 85.4162 60.3249 84.642C65.7431 81.273 71.3936 78.3619 77.3846 76.1418C77.4399 76.0638 77.5075 75.9902 77.5643 75.9081C77.6227 75.8869 77.6676 75.8516 77.726 75.8304C78.2992 74.5329 79.548 73.882 80.6621 73.114C79.988 74.3296 79.06 75.2931 77.726 75.8304C77.6916 75.9019 77.6545 75.9677 77.6268 76.0462C77.5475 76.0739 77.4653 76.11 77.3846 76.1418C76.1142 77.8529 74.3319 78.9657 72.5243 79.9396C67.4644 82.6735 62.6164 85.8582 56.7718 87.2292ZM93.1342 81.154C92.1661 83.5195 92.1661 83.5195 88.5417 84.2709C90.0659 82.9046 91.364 81.9694 93.1342 81.154ZM45.8835 81.414C46.6037 80.7115 47.3652 79.9446 48.2639 79.551C63.8364 72.7458 77.3 61.9058 93.3898 56.0258C100.986 53.248 108.637 51.6175 116.708 52.0154C118.024 52.0801 119.274 52.2932 120.677 53.6234C112.945 59.0366 105.211 64.3749 100.373 72.6839C100.377 72.6854 100.382 72.6869 100.386 72.6883C105.118 68.5575 109.382 63.8721 114.846 60.6118C115.815 60.0297 116.607 59.2037 117.781 59.896C117.799 59.87 117.822 59.8455 117.842 59.8153C117.9 59.7568 117.969 59.7164 118.034 59.6648C119.256 56.2375 122.09 54.5855 125.647 55.5235C123.569 57.962 120.174 57.7355 118.034 59.6648C117.997 59.7681 117.946 59.8614 117.908 59.9687C117.869 59.9362 117.826 59.9258 117.779 59.9001C116.66 61.5389 115.45 62.8952 113.665 63.9886C110.252 66.0726 107.03 68.549 104.321 71.5682C103.2 72.8165 102.04 73.5547 100.384 72.6924C100.374 72.7075 100.363 72.7129 100.349 72.7265C100.355 72.71 100.363 72.699 100.372 72.6881C100.368 72.6866 100.364 72.6852 100.359 72.6837C98.9718 72.1111 98.5073 73.4423 97.9995 74.0943C95.5238 77.2794 92.3459 79.6042 88.7636 81.1829C87.0191 81.9515 86.4453 84.3027 84.0133 84.2348C85.1334 81.3194 86.2138 78.7011 89.089 77.1564C90.842 76.219 92.2173 74.6702 93.7421 72.3292C88.0618 73.9439 84.4644 77.9453 79.7746 79.8394C75.0626 81.7441 71.6746 85.9401 66.7429 87.5214C65.9873 85.997 67.2502 85.5693 67.9418 85.0795C70.1876 83.4801 72.5131 81.983 74.8574 80.5251C78.5647 78.2105 82.0557 75.6154 85.1749 72.5503C85.9332 71.8055 88.3997 71.4074 86.014 69.4988C85.5805 69.151 87.238 68.1428 87.8639 67.3792C88.1874 66.9872 88.2289 66.5932 87.98 66.2084C87.7215 65.8109 87.2788 65.7523 86.8358 65.8655C85.3636 66.2427 84.3129 67.2651 83.2313 68.2302C79.5328 71.5322 75.4176 74.2416 71.1342 76.692C68.5184 78.1842 68.4643 78.1141 64.6947 77.3055C67.5433 73.7458 72.141 72.8361 75.1314 69.7024C74.4808 68.4192 73.529 68.6873 72.6468 69.2446C70.8014 70.4048 69.0098 71.6489 67.1928 72.847C65.3743 74.0492 63.6026 75.1054 61.2547 75.2853C58.616 75.4882 56.6492 77.5712 54.3407 78.7307C52.2708 79.7654 50.3744 81.149 48.3724 82.333C47.5481 82.8178 46.752 83.591 45.7082 83.121C45.2549 82.4088 45.4894 81.809 45.8847 81.4237L45.8835 81.414ZM136.859 55.7656C134.633 56.1927 132.477 57.6288 129.416 56.7821C132.07 54.6951 134.465 55.2885 136.859 55.7656ZM97.5543 86.7834C95.1997 89.1383 93.0654 89.4353 90.8123 89.4119C92.4941 87.8876 94.4369 87.0821 97.5543 86.7834ZM138.314 57.7641C146.034 57.2908 153.66 57.6758 160.989 60.4304C163.678 61.4385 166.003 63.2187 168.766 64.0024C168.584 64.5186 168.558 64.9363 168.397 64.996C164.592 66.445 160.963 68.2209 157.438 70.2699C155.064 71.6526 152.443 72.386 149.618 72.709C146.31 73.089 143.246 74.5766 140.219 76.026C138.674 76.7675 137.29 77.9741 135.442 77.9588C134.696 78.2206 133.95 78.4824 133.209 78.7457C130.87 79.5835 128.751 81.6917 125.951 79.8136C125.34 79.4034 124.656 80.1882 124.041 80.5657C121.971 81.8233 119.797 82.8396 116.491 83.7915C118.386 80.8848 121.402 81.3625 122.695 78.9166C119.631 78.4589 117.376 79.874 115.347 81.5545C111.94 84.3698 107.678 85.5648 103.977 87.8214C102.8 88.544 101.261 88.7304 98.9685 87.8853C103.517 85.5099 108.135 84.3609 111.24 80.7944C106.717 82.0183 103.017 85.431 97.2935 85.814C99.7455 83.1034 102.689 82.655 104.921 81.1205C107.146 79.5927 109.387 78.0985 112.069 76.2861C106.943 76.3412 104.081 80.2163 99.7377 81.6661C99.6275 79.4546 101.001 78.4762 102.113 77.2527C105.668 73.3336 110.416 70.8936 114.182 67.2674C120.938 60.772 129.245 58.3189 138.314 57.7641ZM140.867 80.5393C137.347 81.0862 135.788 85.2722 131.124 84.7147C146.424 74.7773 146.424 74.7773 149.957 75.7578C147.183 78.1598 144.126 80.0352 140.868 80.5352L140.867 80.5393ZM175.187 67.491C178.484 66.9723 181.456 68.2427 183.765 69.9617C189.206 73.9963 194.994 77.689 199.385 83.0063C200.759 84.6698 202.341 86.1511 203.772 87.7047C206.118 90.2634 207.775 93.5168 209.397 96.6464C209.985 97.7776 208.929 98.8678 207.524 98.8972C206.036 98.9252 204.502 98.454 203.436 97.5724C199.483 94.2852 194.497 93.6932 189.923 92.0115C187.731 91.211 185.354 91.4597 182.586 90.5167C187.277 87.6853 192.235 88.0816 196.743 86.7037C193.778 86.1743 190.904 86.178 188.02 87.0372C181.419 89.0049 174.77 90.1203 167.235 87.084C173.539 84.5658 179.494 83.9997 186.005 83.9315C184.608 82.2179 183.124 82.6793 182.037 82.6863C176.375 82.738 170.778 83.3932 165.588 85.9325C164.613 86.4106 163.633 86.483 162.62 86.2794C159.359 85.6176 155.998 85.7282 152.782 84.5577C150.308 83.6625 147.606 84.8086 145.022 84.5665C143.591 84.4334 143.228 83.7019 144.71 82.8361C144.768 81.1203 146.111 80.8185 147.353 80.6341C148.452 80.4737 148.323 81.287 148.085 82.0155C149.365 80.8833 151.422 81.5155 152.573 79.7484C153.224 78.7429 154.073 82.1062 155.474 80.1675C156.144 79.2384 156.995 78.4287 158.065 77.8773C159.159 77.3111 160.571 77.3677 161.706 76.1196C157.924 75.6085 155.148 78.8315 151.653 78.0967C151.66 77.6164 151.561 77.2008 151.692 77.1074C158.763 72.0322 166.59 68.8484 175.191 67.4925L175.187 67.491ZM-3.85851 80.6566C-1.00806 81.378 0.339543 83.7471 2.14816 85.6102C-1.62433 85.9009 -1.81732 82.2674 -3.85851 80.6566ZM-16.6157 73.7278C-17.4277 73.5206 -17.4965 72.6375 -16.7467 72.0614C-15.7825 71.3242 -14.4735 70.7131 -13.5903 71.665C-11.1945 74.255 -7.61281 75.6102 -5.57411 79.3974C-9.79054 77.7396 -12.6834 74.7191 -16.6172 73.732L-16.6157 73.7278ZM-24.2117 104.839C-25.2834 105.172 -26.5822 105.517 -27.3859 104.366C-28.0925 103.36 -27.96 102.116 -27.4751 101.043C-26.4549 98.7793 -24.8844 100.029 -23.3105 100.547C-22.233 101.145 -19.979 101.113 -20.0723 102.64C-20.2016 104.795 -22.6702 104.37 -24.2075 104.841L-24.2117 104.839ZM243.703 144.935C243.277 144.33 242.866 143.786 242.729 143.046C240.942 133.27 236.829 124.471 231.024 116.525C227.748 112.041 225.097 106.771 219.216 104.838C217.7 104.341 216.276 103.542 214.747 103.109C212.998 102.614 212.222 101.491 212.709 99.8842C213.299 97.9335 212.238 96.5286 211.637 94.9333C210.432 91.7511 207.937 89.507 206.005 86.8389C203 82.702 199.773 78.8951 195.618 75.8662C193.535 74.3475 191.626 72.5977 189.749 70.7709C187.129 68.2271 184.113 65.9758 180.282 65.0249C175.071 63.7314 170.075 61.7755 165.282 59.2553C161.593 57.3099 157.825 55.4574 153.41 55.5865C151.551 55.6416 149.68 55.1261 147.871 54.4981C144.774 53.4251 141.433 53.2272 138.257 52.7995C132.961 52.0889 127.759 50.293 122.294 50.8782C121.753 50.9385 121.142 50.7 120.616 50.4725C116.167 48.5797 111.434 49.2283 106.885 49.4078C100.748 49.6497 95.0021 51.9376 89.3799 54.413C83.5529 56.9833 77.5964 59.2108 72.2081 62.7714C69.5867 64.5031 66.4045 65.4986 63.9288 67.5137C61.4291 69.5575 58.5073 70.8398 55.8759 72.5865C51.3017 75.6123 46.1563 77.629 42.0521 81.5957C38.6667 84.8641 34.0553 85.9965 29.0467 84.5748C25.433 83.5473 21.9689 81.8715 18.1119 81.7052C15.9706 81.6145 13.8586 81.5851 12.1567 79.7086C11.1152 78.5615 9.47378 79.1298 8.02202 79.528C6.22568 80.0231 5.9689 81.8035 4.95664 82.9928C2.81227 82.3716 1.38791 80.904 -0.0369209 79.464C-3.5087 75.9563 -7.08889 72.559 -11.1873 69.7775C-13.2215 68.3966 -15.368 67.2687 -16.6865 64.9749C-17.5127 63.5324 -19.0433 62.8397 -20.8484 63.4384C-24.0944 64.5229 -24.6101 67.7348 -25.8487 70.237C-26.709 71.9812 -23.9764 72.4057 -23.4786 73.9647C-23.1181 75.0852 -21.4848 74.9737 -20.434 75.358C-12.5078 78.2443 -5.96402 83.0019 -0.589917 89.4085C-1.39191 90.2772 -2.24907 90.3558 -3.10618 90.0398C-4.1061 89.6688 -5.28351 89.2492 -5.83942 90.3532C-6.91388 92.4815 -8.91113 92.2975 -10.6931 92.6862C-12.8125 93.151 -15.0469 93.2456 -16.7095 94.9391C-17.6119 95.856 -18.6999 96.011 -19.9217 95.599C-23.5279 94.3791 -26.2151 97.0207 -29.2887 97.971C-30.2715 98.2745 -30.6593 99.4145 -30.9112 100.445C-32.0614 105.141 -28.3559 108.88 -23.6107 107.841C-21.2902 107.331 -19.3395 106.004 -17.2817 104.951C-11.3229 101.889 -4.84418 100.152 1.25617 97.45C4.65177 95.9541 7.23105 97.3134 8.1464 100.909C8.30925 101.551 8.00241 102.33 7.85853 103.041C7.51034 104.752 7.24871 106.493 6.74098 108.157C5.1307 113.384 4.96287 119.054 1.60732 123.762C-0.282424 126.416 -0.0184901 134.41 3.07227 136.79C5.68711 138.798 5.7329 140.904 5.67773 143.558C5.64383 145.009 5.69602 146.36 5.17959 147.812C3.99852 151.123 4.69904 154.592 6.06135 157.538C7.11751 159.813 8.78611 162.481 12.2904 162.031C13.1316 161.919 14.028 162.281 14.8859 162.24C16.6308 162.154 16.9168 162.789 16.909 164.559C16.8928 168.142 18.3953 170.979 22.1736 172.158C23.5472 172.586 24.8761 173.273 26.1 174.034C29.6144 176.224 32.9791 175.854 36.3309 173.707C37.0649 173.242 37.8637 172.868 38.6462 172.476C41.4751 171.049 42.5897 171.502 44.7041 173.589C48.6719 177.504 50.6675 182.557 51.6176 187.632C52.697 193.366 52.3652 199.395 52.6704 205.288C52.801 207.836 52.994 210.221 54.2507 212.177C56.3537 215.453 58.7584 218.636 62.2255 220.684C65.538 222.645 67.5692 226.309 71.4242 227.533C71.8119 227.656 72.1998 228.002 72.4357 228.345C73.9317 230.529 76.2972 231.391 78.5795 232.265C85.8575 235.057 93.0247 238.256 100.959 238.857C101.668 238.912 102.345 239.29 103.052 239.441C110.003 240.912 116.847 243.268 124.065 242.799C128.486 242.509 133.211 243.13 137.129 240.323C140.184 238.136 143.247 238.018 146.582 239.379C148.194 240.035 150.012 240.309 151.312 241.524C152.639 242.767 153.696 242.202 154.734 241.282C156.186 240.001 157.33 238.78 156.118 236.472C155.432 235.172 155.563 233.329 155.664 231.753C155.824 229.433 155.279 227.337 153.748 225.725C152.174 224.075 152.73 222.367 153.458 220.92C154.578 218.715 156.273 216.875 158.738 215.956C164.086 213.956 164.018 213.704 162.495 207.991C161.651 204.824 160.586 201.654 160.965 198.185C161.467 193.566 160.918 188.985 160.002 184.391C158.933 179.01 156.82 173.762 157.48 168.09C157.579 167.219 157.07 166.427 156.626 165.662C154.022 161.165 151.475 156.637 148.84 152.161C148.288 151.229 147.653 150.35 148.617 149.469C149.367 148.786 150.201 149.326 151.015 149.711C156.367 152.237 162.04 153.494 167.898 154.231C170.676 154.578 173.773 153.233 175.958 154.291C179.168 155.845 182.42 155.718 185.642 156.199C189.062 156.713 192.589 157.394 195.888 155.474C197.294 154.656 198.741 155.217 200.139 155.482C204.883 156.393 209.615 156.589 214.37 155.549C218.754 154.587 220.127 152.94 220.335 148.208C220.451 145.696 221.725 144.988 224.277 146.004C228.049 147.501 231.854 148.934 235.605 150.479C237.894 151.425 240.171 151.448 242.368 150.421C244.945 149.221 245.395 147.3 243.71 144.942L243.703 144.935Z" fill="#D7C9A9" fill-opacity="0.7"/>
<path d="M118.751 91.9327C117.22 91.9268 115.604 91.9097 113.882 93.0484C116.067 93.475 117.949 93.8412 119.813 94.2057C120.293 93.0797 120.512 91.9452 118.751 91.9327Z" fill="#D7C9A9" fill-opacity="0.7"/>
<path d="M137.749 74.6214C135.998 76.3813 133.642 76.3728 133.219 78.7445C133.96 78.4812 134.706 78.2194 135.451 77.9576C135.933 76.9202 137.551 76.7476 137.753 74.6228L137.749 74.6214Z" fill="#D7C9A9" fill-opacity="0.7"/>
<path d="M91.0127 141.883L91.181 141.826C91.1769 141.825 91.1687 141.822 91.1645 141.82C91.1631 141.825 91.1575 141.827 91.1561 141.831C85.0079 141.526 79.3192 139.312 73.4125 137.388C76.4186 137.747 79.4281 138.622 82.2002 136.66C81.3088 135.311 80.2488 136.07 79.3208 136.007C75.8588 135.785 72.1123 137.422 69.0495 134.398C68.7724 134.119 67.8173 134.186 67.413 134.452C66.1275 135.299 64.4754 134.912 62.9957 135.56C64.2922 137.378 66.8005 136.256 67.414 137.684C68.4741 140.133 70.6401 139.838 72.4504 140.434C76.4518 141.742 80.6405 142.387 84.5822 143.944C86.5057 144.705 88.608 144.657 90.5891 144.19C91.9329 143.874 92.651 142.98 91.0169 141.884L91.0127 141.883Z" fill="#D7C9A9" fill-opacity="0.7"/>
<path d="M121.427 187.579C117.829 186.757 114.22 185.968 110.614 185.166C110.556 185.475 110.491 185.791 110.433 186.1C115.042 188.987 120.114 190.176 125.549 189.9C131.953 189.571 137.344 191.104 143.066 194.04C144.322 194.683 145.558 195.935 147.191 195.917C147.955 195.907 148.735 195.625 148.988 194.92C149.179 194.393 148.685 193.927 148.1 193.628C140.528 189.71 132.596 187.314 123.96 187.98C123.045 188.052 122.263 187.772 121.427 187.579Z" fill="#D7C9A9" fill-opacity="0.7"/>
<path d="M125.147 145.246C126.304 145.277 127.711 145.991 128.675 144.019C121.34 142.873 114.226 142.52 107.06 142.659C105.299 142.698 103.309 143.505 102.183 140.996C101.658 139.827 99.3319 140.052 99.3177 140.855C99.2725 143.573 97.3774 142.692 96.0835 142.997C94.8105 143.296 93.5593 143.612 92.2906 145.226C96.6432 146.063 100.369 144.841 104.081 144.841C111.115 144.841 118.132 145.048 125.149 145.241L125.147 145.246Z" fill="#D7C9A9" fill-opacity="0.7"/>
<path d="M86.8532 193.853C85.951 188.182 85.3047 182.193 81.4177 177.299C81.7469 181.677 83.3442 185.796 83.9045 190.163C84.4926 194.753 85.4609 199.184 83.0811 203.596C82.5337 204.61 82.0193 205.557 81.3364 206.495C80.3047 207.924 79.3088 209.513 79.542 212.441C84.837 206.647 87.9454 200.747 86.8532 193.853Z" fill="#D7C9A9" fill-opacity="0.7"/>
<path d="M80.6096 226.36C84.0991 226.833 87.3663 225.714 90.2154 224.402C93.1425 223.052 97.0097 223.584 99.0707 220.313C92.7384 221.818 86.3616 223.109 80.6096 226.36Z" fill="#D7C9A9" fill-opacity="0.7"/>
<path d="M49.2075 110.993C45.2051 109.898 41.0588 109.277 37.396 107.114C36.7515 106.733 35.9984 107.109 35.7574 108.226C40.3113 110.267 44.9604 111.934 50.1859 112.267C50.02 111.173 49.6257 111.108 49.2089 110.989L49.2075 110.993Z" fill="#D7C9A9" fill-opacity="0.7"/>
<path d="M25.3583 141.887C25.8908 136.787 26.3888 131.679 25.4487 126.589C24.1544 131.695 24.2165 136.791 25.3583 141.887Z" fill="#D7C9A9" fill-opacity="0.7"/>
<path d="M32.773 145.554C31.7434 140.6 32.7879 136.177 32.6473 130.909C29.9562 134.547 30.1398 141.613 32.773 145.554Z" fill="#D7C9A9" fill-opacity="0.7"/>
<path d="M62.8209 165.271C61.8857 161.627 62.2914 157.833 61.3678 154.156C61.6868 158.562 60.443 162.841 60.2996 167.363C62.7961 166.052 63.0003 165.998 62.8168 165.27L62.8209 165.271Z" fill="#D7C9A9" fill-opacity="0.7"/>
<path d="M78.8425 158.875C78.841 158.879 78.8913 158.999 78.8913 158.999C78.9114 158.955 78.9383 158.918 78.9584 158.874C78.9196 158.879 78.8797 158.874 78.8425 158.875Z" fill="#D7C9A9" fill-opacity="0.7"/>
<path d="M93.9229 159.817C89.7384 159.094 85.9788 158.414 82.2055 157.813C80.9772 157.617 79.6613 157.446 78.9586 158.874C83.0853 158.644 87.0131 159.661 90.8974 160.868C92.0152 161.22 92.9288 161.388 93.9188 159.815L93.9229 159.817Z" fill="#D7C9A9" fill-opacity="0.7"/>
<path d="M55.6474 146.063C55.2256 145.761 54.4659 145.484 54.0729 145.665C52.5299 146.375 53.1095 147.847 53.0821 149.081C53.0782 149.224 53.0881 149.367 53.1007 149.515C53.1889 150.317 52.929 151.409 54.2476 151.349C55.0944 151.313 55.9615 151.062 56.321 149.963C56.0261 148.735 57.1739 147.148 55.6474 146.063Z" fill="#D7C9A9" fill-opacity="0.7"/>
<path d="M59.3848 170.708C58.9288 173.672 58.7665 175.895 59.3935 178.126C59.5612 178.728 60.1552 178.988 60.7527 178.976C61.2187 178.969 61.5995 178.546 61.5321 178.132C61.1328 175.846 61.4911 173.331 59.3848 170.708Z" fill="#D7C9A9" fill-opacity="0.7"/>
<path d="M121.566 182.02C117.094 180.481 113.184 183.239 109.712 180.929C113.227 183.644 116.963 184.088 121.566 182.02Z" fill="#D7C9A9" fill-opacity="0.7"/>
<path d="M80.8057 173.987C80.5456 173.607 80.0805 173.717 79.6605 173.857C76.2181 175.026 75.2272 177.903 74.2136 181.673C76.1647 181.107 77.3718 180.469 77.2624 179.228C77.0464 176.817 78.1675 175.805 80.2803 175.32C80.8897 175.182 81.2343 174.611 80.8057 173.987Z" fill="#D7C9A9" fill-opacity="0.7"/>
<path d="M71.485 168.023C71.268 167.547 71.2204 166.802 70.3966 166.943C69.6297 167.081 68.7176 167.763 68.9576 168.265C69.6715 169.724 68.6271 171.793 70.8073 173.049C71.3223 171.285 72.3159 169.82 71.485 168.023Z" fill="#D7C9A9" fill-opacity="0.7"/>
<path d="M97.094 140.103C94.8146 139.3 92.8476 139.674 90.9117 139.698C90.3474 139.708 89.6595 139.832 89.6788 140.54C89.6983 141.392 90.5337 141.533 91.1619 141.815C92.8935 140.912 95.2243 142.016 97.0914 140.098L97.094 140.103Z" fill="#D7C9A9" fill-opacity="0.7"/>
<path d="M35.8469 138.239C36.9365 135.332 36.0405 132.523 35.8636 129.698C35.097 132.557 34.4962 135.419 35.8469 138.239Z" fill="#D7C9A9" fill-opacity="0.7"/>
<path d="M45.7285 117.13C45.8562 117.807 46.5553 118.072 47.056 117.9C48.7876 117.312 50.7424 117.551 52.6637 116.32C50.4874 115.474 48.5781 115.317 46.6327 115.88C46.1004 116.036 45.6072 116.489 45.7271 117.134L45.7285 117.13Z" fill="#D7C9A9" fill-opacity="0.7"/>
<path d="M31.7533 123.361C31.3232 123.214 31.1686 123.744 30.9702 124.097C29.8 126.168 31.3436 127.929 31.8964 129.818C31.7083 127.867 32.7066 126.139 32.451 124.326C32.4021 123.966 32.0666 123.471 31.7518 123.365L31.7533 123.361Z" fill="#D7C9A9" fill-opacity="0.7"/>
<path d="M112.786 225.616C109.484 226.741 107.869 228.548 106.509 230.618C109.173 230.173 110.884 228.474 112.786 225.616Z" fill="#D7C9A9" fill-opacity="0.7"/>
<path d="M106.295 230.659C106.294 230.663 106.365 230.819 106.365 230.819C106.413 230.747 106.46 230.68 106.506 230.617C106.432 230.628 106.369 230.648 106.295 230.659Z" fill="#D7C9A9" fill-opacity="0.7"/>
<path d="M56.7789 113.768C59.3456 115.216 61.3853 114.872 63.3106 115.063C61.531 113.749 59.5912 113.678 56.7789 113.768Z" fill="#D7C9A9" fill-opacity="0.7"/>
<path d="M101.053 167.882C103.02 168.441 104.979 169.127 107.054 168.052C105.029 168.42 103.168 166.06 101.053 167.882Z" fill="#D7C9A9" fill-opacity="0.7"/>
<path d="M134.033 146.604C132.449 144.407 132.449 144.407 130.48 145.551C131.618 146.082 132.573 146.934 134.033 146.604Z" fill="#D7C9A9" fill-opacity="0.7"/>
<path d="M38.7462 139.953C37.5601 141.201 37.2981 142.339 38.3829 143.929C39.5288 142.61 39.9482 141.486 38.7462 139.953Z" fill="#D7C9A9" fill-opacity="0.7"/>
<path d="M40.3091 130.364C39.1228 131.074 38.3261 131.875 38.5117 133.347C38.6328 134.318 39.2096 134.378 39.9545 134.158C39.6186 132.902 40.8103 131.808 40.3132 130.366L40.3091 130.364Z" fill="#D7C9A9" fill-opacity="0.7"/>
<path d="M21.1504 134.893C20.0375 136.302 19.9842 137.598 20.8905 139.904C21.5334 137.712 22.3233 136.43 21.1504 134.893Z" fill="#D7C9A9" fill-opacity="0.7"/>
<path d="M51.2053 114.357C52.7066 114.515 53.9602 114.692 55.2089 113.582C53.5595 112.253 52.3369 112.277 51.2053 114.357Z" fill="#D7C9A9" fill-opacity="0.7"/>
<path d="M74.614 143.959C75.8471 144.746 76.8454 145.135 78.1256 144.04C76.9768 143.487 76.0695 142.721 74.614 143.959Z" fill="#D7C9A9" fill-opacity="0.7"/>
<path d="M105.706 175.427C105.297 175.404 104.75 175.508 104.778 175.996C104.789 176.344 105.138 176.866 105.45 176.967C106.208 177.211 107.08 177.588 107.73 176.679C107.453 175.584 106.583 175.476 105.71 175.429L105.706 175.427Z" fill="#D7C9A9" fill-opacity="0.7"/>
<path d="M79.1004 219.519C80.2328 219.356 81.5458 219.694 82.6366 218.281C80.9386 217.985 79.9839 218.656 79.1004 219.519Z" fill="#D7C9A9" fill-opacity="0.7"/>
<path d="M20.2416 141.653C19.9985 142.816 20.4528 143.789 21.6097 145.371C21.4257 141.383 21.2781 141.053 20.2416 141.653Z" fill="#D7C9A9" fill-opacity="0.7"/>
<path d="M61.9123 121.358C61.3299 121.301 60.5821 121.451 60.5107 122.047C60.3886 123.091 61.32 122.959 61.9717 122.925C62.6194 122.888 63.3592 122.959 63.7802 122.211C63.3247 121.544 62.6092 121.431 61.9123 121.358Z" fill="#D7C9A9" fill-opacity="0.7"/>
<path d="M109.776 168.914C110.745 169.557 111.616 169.794 112.93 168.879C111.567 168.342 110.682 168.077 109.776 168.914Z" fill="#D7C9A9" fill-opacity="0.7"/>
<path d="M41.3238 148.141C40.6591 148.751 40.0696 149.333 40.4487 150.256C40.5163 150.419 40.9639 150.595 41.0924 150.52C42.2571 149.858 41.8363 149.027 41.3238 148.141Z" fill="#D7C9A9" fill-opacity="0.7"/>
<path d="M69.7076 221.241L69.7659 221.377C69.776 221.349 69.793 221.327 69.8031 221.298C69.769 221.277 69.7444 221.268 69.7061 221.245L69.7076 221.241Z" fill="#D7C9A9" fill-opacity="0.7"/>
<path d="M73.8056 219.974C71.8047 219.998 70.4784 219.633 69.8048 221.294C71.2489 222.272 72.2272 221.442 73.8056 219.974Z" fill="#D7C9A9" fill-opacity="0.7"/>
<path d="M109.137 225.161C109.135 225.165 109.204 225.301 109.204 225.301C109.23 225.226 109.257 225.162 109.284 225.087C109.233 225.111 109.189 225.133 109.138 225.157L109.137 225.161Z" fill="#D7C9A9" fill-opacity="0.7"/>
<path d="M112.563 222.25C110.439 222.769 109.746 223.839 109.282 225.091C110.466 224.557 111.717 224.06 112.563 222.25Z" fill="#D7C9A9" fill-opacity="0.7"/>
<path d="M97.8867 163.572C97.6117 163.642 97.0787 163.603 96.8864 163.846C96.6063 164.207 96.8882 164.683 97.3395 164.73C97.701 164.77 98.2308 164.673 98.4508 164.43C98.8682 163.969 98.3961 163.77 97.8825 163.571L97.8867 163.572Z" fill="#D7C9A9" fill-opacity="0.7"/>
<path d="M74.4826 133.313C73.1173 132.493 72.1652 132.158 71.1437 133.321C72.3351 133.884 73.2527 133.989 74.4826 133.313Z" fill="#D7C9A9" fill-opacity="0.7"/>
<path d="M16.7518 128.598C16.3486 128.099 16.0482 128.044 15.8437 128.348C15.3684 129.039 15.6905 129.743 16.0227 130.352C16.2597 130.783 16.8087 130.698 17.0202 130.309C17.4005 129.598 17.0163 128.966 16.7559 128.6L16.7518 128.598Z" fill="#D7C9A9" fill-opacity="0.7"/>
<path d="M15.7145 112.648C15.4979 113.013 15.5473 113.425 15.9684 113.61C16.1331 113.682 16.4047 113.49 16.7245 113.385C16.5745 113.035 16.4353 112.693 16.285 112.357C16.0898 112.451 15.8071 112.49 15.7159 112.644L15.7145 112.648Z" fill="#D7C9A9" fill-opacity="0.7"/>
<path d="M76.9639 168.334C76.8204 168.32 76.6448 168.714 76.523 168.875C76.5016 169.462 76.8728 169.657 77.3117 169.701C77.6429 169.734 77.8437 169.48 77.8013 169.14C77.7393 168.658 77.4016 168.367 76.9625 168.338L76.9639 168.334Z" fill="#D7C9A9" fill-opacity="0.7"/>
<path d="M83.7875 145.028C83.1903 144.948 82.6309 144.997 82.2213 145.488C82.2043 145.51 82.5228 145.948 82.7469 146.022C83.3215 146.206 83.8899 146.118 84.2602 145.58C84.2971 145.528 83.9555 145.222 83.7875 145.028Z" fill="#D7C9A9" fill-opacity="0.7"/>
<path d="M64.1951 173.653C64.1046 174.002 64.0924 174.615 64.2917 174.759C64.7979 175.137 65.3661 174.906 65.525 174.284C65.6039 173.968 65.351 173.568 65.2769 173.305C64.6695 173.017 64.3089 173.238 64.1924 173.647L64.1951 173.653Z" fill="#D7C9A9" fill-opacity="0.7"/>
<path d="M39.919 134.232C39.9329 134.219 39.9387 134.202 39.9567 134.19L39.9847 134.15C39.9751 134.151 39.9655 134.152 39.9504 134.156C39.9531 134.161 39.9543 134.171 39.9555 134.181C39.9401 134.198 39.9303 134.213 39.9205 134.228L39.919 134.232Z" fill="#D7C9A9" fill-opacity="0.7"/>
<path d="M39.7826 134.422C39.1394 135.3 38.4163 136.169 38.8814 137.623C40.4658 136.757 39.2839 135.337 39.7826 134.422Z" fill="#D7C9A9" fill-opacity="0.7"/>
<path d="M16.8331 132.996C16.3826 132.749 16.0752 132.938 15.8442 133.488C16.0025 133.762 16.1181 134.183 16.3989 134.412C16.8198 134.769 17.1484 134.481 17.2573 134.027C17.3629 133.61 17.2371 133.217 16.8331 132.996Z" fill="#D7C9A9" fill-opacity="0.7"/>
<path d="M82.8776 222.094C83.4811 222.288 83.9397 221.842 84.3199 221.447C84.4509 221.312 84.3712 220.973 84.3824 220.73C83.8731 220.913 83.3639 221.096 83.1663 221.17C82.6548 221.635 82.6027 222.007 82.872 222.097L82.8776 222.094Z" fill="#D7C9A9" fill-opacity="0.7"/>
<path d="M77.7377 223.857C77.6954 223.833 77.6557 223.815 77.612 223.795L77.5916 223.774C77.5911 223.801 77.5798 223.82 77.5793 223.848C77.6083 223.844 77.6386 223.85 77.662 223.849C77.6881 223.854 77.7116 223.853 77.7336 223.856L77.7377 223.857Z" fill="#D7C9A9" fill-opacity="0.7"/>
<path d="M81.0322 223.018C79.631 222.747 78.923 224.164 77.7381 223.858C79.0294 224.559 80.1506 224.638 81.0322 223.018Z" fill="#D7C9A9" fill-opacity="0.7"/>
<path d="M96.6407 166.174C96.2741 165.873 95.8685 165.828 95.543 166.172C95.4557 166.262 95.5812 166.748 95.7333 166.829C95.9277 166.935 96.2619 166.881 96.5012 166.793C96.856 166.668 96.8921 166.42 96.6366 166.173L96.6407 166.174Z" fill="#D7C9A9" fill-opacity="0.7"/>
<path d="M208.302 131.572C206.195 131.437 204.18 130.894 204.177 134.124C204.178 134.844 203.299 135.143 202.515 135.252C201.555 135.387 200.528 134.617 199.625 135.445C199.669 135.739 199.639 136.049 199.765 136.256C199.911 136.488 200.31 136.578 200.404 136.81C201.307 139.074 201.324 138.987 203.183 139.522C205.553 140.213 208.08 140.064 210.4 141.002C210.967 141.234 211.796 141.29 212.204 139.948C209.698 140.392 207.757 139.049 205.61 138.408C204.746 138.151 204.493 137.606 204.894 136.773C205.477 135.553 206.246 134.092 207.74 134.916C209.495 135.878 206.584 136.579 207.241 137.725C208.963 138.439 209.899 137.111 210.969 136.221C212.658 134.806 214.366 134.089 216.761 133.959C219.021 133.831 221.762 134.101 224.682 131.89C222.337 131.903 220.931 131.937 219.532 131.908C215.79 131.824 212.032 131.809 208.304 131.568L208.302 131.572Z" fill="#D7C9A9" fill-opacity="0.7"/>
<path d="M137.386 102.697C139.512 104.356 141.529 105.917 143.536 107.492C146.171 109.563 146.165 109.566 148.87 106.768C142.861 100.374 142.861 100.374 137.386 102.697Z" fill="#D7C9A9" fill-opacity="0.7"/>
<path d="M170.227 103.431C166.386 104.283 162.521 104.429 158.586 104.208C156.927 104.115 155.043 104.426 153.936 106.264C158.282 106.162 162.533 105.552 166.81 105.528C168.505 105.517 170.201 105.107 172.19 104.843C171.672 103.406 170.967 103.265 170.223 103.43L170.227 103.431Z" fill="#D7C9A9" fill-opacity="0.7"/>
<path d="M128.448 90.768C133.235 92.2137 134.894 96.6703 139.077 98.4508C137.103 92.3746 134.52 90.4101 128.448 90.768Z" fill="#D7C9A9" fill-opacity="0.7"/>
<path d="M219.004 126.899C212.871 125.773 209.25 125.963 207.103 127.704C210.892 126.393 214.898 129.24 219.004 126.899Z" fill="#D7C9A9" fill-opacity="0.7"/>
<path d="M209.926 121.902C212.983 122.302 215.818 123.854 219.594 123.513C212.475 121.06 212.475 121.06 209.926 121.902Z" fill="#D7C9A9" fill-opacity="0.7"/>
<path d="M173.555 107.872C171.944 108.145 170.231 107.323 168.586 108.48C171.151 109.486 171.159 109.53 173.555 107.872Z" fill="#D7C9A9" fill-opacity="0.7"/>
<path d="M226.064 137.186C229.536 137.867 229.536 137.867 231.221 135.977C229.767 137.145 227.864 135.3 226.064 137.186Z" fill="#D7C9A9" fill-opacity="0.7"/>
<path d="M202.58 115.66C200.803 114.379 199.499 113.831 197.699 115.402C199.351 116.486 200.677 116.628 202.58 115.66Z" fill="#D7C9A9" fill-opacity="0.7"/>
<path d="M169.591 114.437C171.009 114.872 172.41 116.42 174.807 114.734C172.775 114.148 171.437 113.263 169.591 114.437Z" fill="#D7C9A9" fill-opacity="0.7"/>
<path d="M195.703 124.564C194.619 123.866 193.583 124.411 192.554 124.782C192.453 124.816 192.404 125.008 192.11 125.475C193.557 125.683 194.715 126.815 195.742 125.32C195.86 125.144 195.827 124.645 195.703 124.564Z" fill="#D7C9A9" fill-opacity="0.7"/>
<path d="M198.104 126.928C198.501 127.221 198.724 127.523 198.912 127.501C200.061 127.395 201.209 127.215 203.004 126.975C200.987 125.623 199.615 126.059 198.1 126.927L198.104 126.928Z" fill="#D7C9A9" fill-opacity="0.7"/>
<path d="M194.988 120.663C195.585 120.86 196.031 120.45 196.467 120.121C196.768 119.897 196.736 119.659 196.418 119.458C195.841 119.32 195.305 119.447 194.856 119.813C194.456 120.132 194.509 120.508 194.988 120.663Z" fill="#D7C9A9" fill-opacity="0.7"/>
<path d="M130.201 72.3049C127.721 72.754 126.833 75.2869 124.867 76.4465C129.183 74.5365 129.183 74.5365 130.201 72.3049Z" fill="#D7C9A9" fill-opacity="0.7"/>
<path d="M153.98 83.355C155.312 82.4826 157.759 83.7816 158.448 81.3132C156.496 81.2007 155.149 82.1144 153.98 83.355Z" fill="#D7C9A9" fill-opacity="0.7"/>
<path d="M174.079 80.903C171.771 80.9852 170.608 81.6943 169.56 82.6946C171.084 82.9206 172.309 82.3773 174.079 80.903Z" fill="#D7C9A9" fill-opacity="0.7"/>
<path d="M162.854 80.2244C161.634 80.5698 160.775 80.55 160.423 81.6145C161.207 81.3893 162.29 81.7063 162.854 80.2244Z" fill="#D7C9A9" fill-opacity="0.7"/>
<path d="M164.547 83.7318C165.097 83.763 165.646 83.7292 165.905 83.1658C165.954 83.0669 165.607 82.7871 165.439 82.5932C164.875 82.552 164.327 82.5817 164.102 83.2177C163.999 83.5247 164.196 83.7149 164.547 83.7318Z" fill="#D7C9A9" fill-opacity="0.7"/>
<path d="M118.99 100.893C119.701 100.308 121.113 100.616 121.302 99.3033C119.381 98.3758 119.499 100.042 118.99 100.893Z" fill="#D7C9A9" fill-opacity="0.7"/>
</g>
<defs>
<clipPath id="clip0_18_10240">
<rect width="281.008" height="192.832" fill="white" transform="translate(-1.09673) rotate(19.4143)"/>
</clipPath>
</defs>
</svg>
